<?xml version="1.0" standalone="no"?><!DOCTYPE svg PUBLIC "-//W3C//DTD SVG 1.1//EN" "http://www.w3.org/Graphics/SVG/1.1/DTD/svg11.dtd"><svg t="1588091427734" class="icon" viewBox="0 0 1024 1024" version="1.1" xmlns="http://www.w3.org/2000/svg" p-id="9924" xmlns:xlink="http://www.w3.org/1999/xlink" width="32" height="32"><defs><style type="text/css"></style></defs><path d="M190.652 900.512a23.167 23.167 0 0 1-11.571-20.772l5.982-195.698a23.188 23.188 0 0 1 3.092-10.875l355.227-615.27C575.319 2.579 646.298-16.44 701.616 15.498s74.336 102.916 42.398 158.234l-355.227 615.27a23.193 23.193 0 0 1-7.874 8.117l-166.487 103.03a23.166 23.166 0 0 1-23.774 0.363z m40.54-209.22l-4.486 146.77 124.864-77.269 352.316-610.229c19.163-33.19 7.752-75.778-25.44-94.94s-75.777-7.752-94.94 25.44L231.192 691.291z" p-id="9925" fill="#6d6d6d"></path><path d="M540.722 130.678l151.032 87.2-23.167 40.126-151.032-87.2 23.167-40.126zM217.307 648.378l160.501 92.668-15.445 26.75-160.5-92.668 15.444-26.75zM205.206 953.33h783.852v70.608H205.206v-70.609zM515.267 784.484h473.791v68.561h-473.79v-68.561zM34.314 953.33H135.62v70.608H34.314v-70.609z" p-id="9926" fill="#6d6d6d"></path></svg>