<?xml version="1.0" standalone="no"?><!DOCTYPE svg PUBLIC "-//W3C//DTD SVG 1.1//EN" "http://www.w3.org/Graphics/SVG/1.1/DTD/svg11.dtd"><svg t="1588091794492" class="icon" viewBox="0 0 1024 1024" version="1.1" xmlns="http://www.w3.org/2000/svg" p-id="2238" xmlns:xlink="http://www.w3.org/1999/xlink" width="32" height="32"><defs><style type="text/css"></style></defs><path d="M116.224 120.9344v307.4048h85.1968V120.9344h116.224V51.2H0v69.7344h116.224z m296.1408-7.936V51.2H335.2576v61.7984h77.1072z m-77.1072 42.24v273.1008h77.1072V155.2384H335.2576z m214.7328 0V73.3696H472.9344v81.92h-46.6944v50.176h46.6944v161.0752c0 13.7216 2.304 24.832 7.0144 33.28a49.5616 49.5616 0 0 0 19.3024 19.5584c8.1408 4.5568 17.5616 7.68 28.2112 9.216 10.7008 1.5872 22.016 2.3552 33.9456 2.3552 7.5776 0 15.36-0.1536 23.3472-0.512a188.416 188.416 0 0 0 21.7088-2.0992V370.176c-3.584 0.7168-7.424 1.2288-11.4176 1.5872a141.824 141.824 0 0 1-12.4928 0.512c-13.0048 0-21.7088-2.048-26.0608-6.2976-4.3008-4.2496-6.5024-12.6976-6.5024-25.3952v-135.168h56.4736v-50.176h-56.4736zM624.6912 51.2v377.1392h77.056V51.2h-77.056z m305.92 211.3024h-125.44c0.4096-5.3248 1.536-11.264 3.584-17.9712 1.9968-6.656 5.4272-13.056 10.2912-19.0464 4.9152-5.9904 11.4176-11.008 19.5584-15.0528 8.1408-4.0448 18.3808-6.0416 30.6688-6.0416 18.8416 0 32.8192 4.9152 42.0864 14.7968 9.216 9.8304 15.616 24.2688 19.2512 43.3152z m-125.44 47.5136h202.5472a187.7504 187.7504 0 0 0-5.4272-60.7232 146.8928 146.8928 0 0 0-24.7296-51.7632 123.7504 123.7504 0 0 0-43.6736-36.1984c-17.7664-8.96-38.5536-13.4656-62.464-13.4656-21.3504 0-40.8064 3.6864-58.368 11.1104a133.376 133.376 0 0 0-74.6496 76.0832 155.4432 155.4432 0 0 0-10.2912 56.9856c0 21.1456 3.328 40.4992 10.0352 58.112s16.2304 32.768 28.5184 45.4144c12.288 12.6976 27.3408 22.4768 45.056 29.3376 17.7152 6.8608 37.632 10.2912 59.6992 10.2912 31.8464 0 59.0336-7.0656 81.408-21.1456 22.528-14.08 39.1168-37.4784 49.9712-70.2464h-67.84c-2.56 8.448-9.4208 16.4864-20.6336 24.064a70.144 70.144 0 0 1-40.192 11.3152c-21.7088 0-38.3488-5.4272-49.92-16.384-11.5712-10.9056-17.92-28.4672-18.9952-52.7872z" p-id="2239" fill="#6d6d6d"></path><path d="M768 947.2v64H0V947.2h768z m256-192V819.2H0v-64h1024zM1024 563.2v64H0V563.2h1024z" p-id="2240" fill="#6d6d6d"></path></svg>